<svg version="1.1" id="Layer_1" xmlns="http://www.w3.org/2000/svg" xmlns:xlink="http://www.w3.org/1999/xlink" x="0px" y="0px"
	 width="100%" viewBox="0 0 512 512" enable-background="new 0 0 512 512" xml:space="preserve">
<path fill="#000000" opacity="1.000000" stroke="none" 
	d="
M1.000000,372.000000 
	C1.000000,264.978577 1.000000,157.957138 1.215194,50.199028 
	C1.807626,48.731987 2.312868,48.039734 2.543316,47.265675 
	C7.828887,29.511707 27.116829,16.411163 44.600906,16.450888 
	C186.222519,16.772665 327.845184,16.652246 469.467529,16.601543 
	C485.054169,16.595964 496.799744,23.565222 505.794220,35.766541 
	C509.163361,40.336891 511.109406,45.678818 513.000000,51.000000 
	C513.000000,158.021439 513.000000,265.042877 512.895630,372.867493 
	C512.337036,374.737518 511.785431,375.774078 511.443359,376.875732 
	C506.070068,394.179810 487.250061,407.668243 469.198242,407.585327 
	C383.204041,407.190125 297.207062,407.424805 211.211212,407.305756 
	C206.691010,407.299500 203.406067,408.598846 200.220779,411.812286 
	C174.644669,437.614197 148.905182,463.254059 123.276222,489.003784 
	C120.905640,491.385529 118.390221,493.579010 115.576416,495.300659 
	C110.360703,498.492065 104.471153,498.605377 99.373062,495.820679 
	C94.533470,493.177124 91.387543,488.997864 91.487305,482.468231 
	C91.838600,459.474701 91.530609,436.471863 91.695915,413.474121 
	C91.728622,408.923248 90.215515,407.273010 85.634727,407.331543 
	C70.804550,407.520966 55.970371,407.402924 41.137745,407.389435 
	C38.982388,407.387482 36.897705,407.204559 34.752640,406.599213 
	C16.818626,401.538239 5.926312,389.702209 1.000000,372.000000 
M411.500183,47.392437 
	C395.835724,47.392307 380.171295,47.392380 364.506836,47.392017 
	C260.854462,47.389614 157.202072,47.392876 53.549694,47.365990 
	C48.849953,47.364773 44.104752,47.560398 39.923676,49.685982 
	C32.691071,53.362919 31.438078,60.332664 31.412521,67.538597 
	C31.323874,92.534836 31.375471,117.531586 31.375416,142.528137 
	C31.375257,213.518356 31.378065,284.508575 31.371349,355.498810 
	C31.370920,360.022034 31.725048,364.516418 33.994381,368.514008 
	C37.760670,375.148621 44.257782,376.535553 51.106457,376.578461 
	C70.103104,376.697479 89.100998,376.600952 108.098328,376.635468 
	C116.877319,376.651428 122.347229,382.149933 122.365135,390.945801 
	C122.395668,405.943665 122.351517,420.941742 122.405609,435.939453 
	C122.411934,437.693359 121.822685,439.585449 123.074829,441.280182 
	C125.460640,441.335907 126.489227,439.358704 127.816322,438.035217 
	C145.986832,419.914124 164.187149,401.821289 182.175980,383.520782 
	C186.916122,378.698517 191.990250,376.485443 198.918716,376.500305 
	C286.572906,376.688202 374.227631,376.634064 461.882233,376.609680 
	C476.046478,376.605743 482.576111,370.567200 482.585724,357.012512 
	C482.654144,260.359222 482.637787,163.705856 482.586487,67.052544 
	C482.584381,63.089642 482.139252,59.049850 480.121124,55.497589 
	C476.335876,48.834911 469.798615,47.518497 462.992767,47.451485 
	C446.163361,47.285782 429.331268,47.394283 411.500183,47.392437 
z"/>
<path fill="#000000" opacity="1.000000" stroke="none" 
	d="
M377.376831,177.032532 
	C378.776489,199.977295 369.623596,218.536255 355.850464,235.302368 
	C340.821442,253.597321 322.739990,268.698120 304.660858,283.795044 
	C293.209015,293.357880 281.725433,302.889679 270.496490,312.710358 
	C261.148804,320.885712 252.760208,320.826324 243.231033,312.599792 
	C229.794907,301.000336 215.870056,289.963593 202.519058,278.269653 
	C183.426804,261.547058 163.367523,245.585663 149.753815,223.676926 
	C131.978897,195.071533 130.550430,165.467133 148.851044,136.805771 
	C161.086578,117.643196 179.567795,107.781219 202.965897,107.497322 
	C224.202972,107.239655 241.414124,114.814461 254.745193,131.287628 
	C256.275055,133.178055 257.728668,133.188110 259.208984,131.292267 
	C269.283356,118.390152 282.455750,110.335617 298.581665,108.191162 
	C324.081085,104.800186 345.965576,112.027672 362.346313,132.678070 
	C372.488037,145.463257 377.545380,160.145554 377.376831,177.032532 
M255.083466,183.660049 
	C248.488907,183.169678 244.622330,179.140961 242.200302,173.464584 
	C238.800339,165.496231 235.130096,157.765152 229.482681,151.012894 
	C221.682419,141.686615 207.986496,137.376434 196.692947,140.111877 
	C169.545746,146.687286 161.645996,179.544937 173.793823,201.276978 
	C182.223312,216.357025 194.632843,228.059662 207.110168,239.479767 
	C221.666519,252.802765 237.161148,265.099884 252.231064,277.862946 
	C256.646362,281.602386 257.786407,281.448822 262.318115,277.536072 
	C272.111786,269.080048 282.059143,260.802277 291.914703,252.417603 
	C307.118225,239.483170 322.124725,226.369781 334.317169,210.370544 
	C348.922150,191.205475 349.986359,168.939041 336.279358,152.009613 
	C323.851746,136.660431 299.111084,133.290741 283.865112,151.962555 
	C278.596802,158.414642 275.210602,165.695175 271.983276,173.175705 
	C268.934479,180.242432 263.808197,184.220810 255.083466,183.660049 
z"/>
</svg>